<?xml version="1.0" encoding="utf-8"?>
<!-- Generator: Adobe Illustrator 19.0.1, SVG Export Plug-In . SVG Version: 6.00 Build 0)  -->
<svg version="1.1" id="Capa_1" xmlns:sketch="http://www.bohemiancoding.com/sketch/ns"
	 xmlns="http://www.w3.org/2000/svg" xmlns:xlink="http://www.w3.org/1999/xlink" x="0px" y="0px" viewBox="-281 375 48 43"
	 style="enable-background:new -281 375 48 43;" xml:space="preserve">
<style type="text/css">
	.st0{fill:#FFFFFF;}
	.st1{fill:none;}
</style>
<title>Rectangle 1</title>
<desc>Created with Sketch.</desc>
<g id="Page-1" sketch:type="MSPage">
	<g id="Recordatorio-blank" transform="translate(-82.000000, -1048.000000)" sketch:type="MSArtboardGroup">
		<g id="Nav" transform="translate(0.000000, 1036.000000)" sketch:type="MSLayerGroup">
			<g id="BG-_x2B_-Rectangle-1-_x2B_-EMERGENCIA" transform="translate(55.000000, 12.000000)">
				<g id="Rectangle-1-_x2B_-EMERGENCIA">
					<g id="Rectangle-1">
						<g sketch:type="MSShapeGroup">
							<g>
								<rect x="-231.3" y="375" class="st0" width="2.6" height="8.5"/>
								<polygon class="st0" points="-212.5,381.4 -214.3,379.6 -220.5,385.6 -218.6,387.4 								"/>
								<polygon class="st0" points="-239.5,385.6 -245.7,379.6 -247.5,381.4 -241.4,387.4 								"/>
								<rect x="-214.7" y="395.9" class="st0" width="8.7" height="2.6"/>
								<rect x="-254" y="395.9" class="st0" width="8.7" height="2.6"/>
								<path class="st0" d="M-215.2,411.2c-0.1-0.5-0.7-0.8-1.1-0.8h-1v-12.5c0-6.5-5.7-11.7-12.7-11.7c-7,0-12.7,5.2-12.7,11.7
									v12.5h-1.1c-0.5,0-1,0.4-1.1,0.8l-1.9,6c-0.1,0.5,0.1,0.8,0.6,0.8h32.3c0.5,0,0.8-0.4,0.6-0.8L-215.2,411.2z M-233.9,392.7
									c-1.3,1.9-2,4.2-2,6.6s0.7,4.7,2,6.6c-3.2-0.6-5.6-3.3-5.6-6.6S-237.1,393.2-233.9,392.7z M-243.7,415.9l1-3.4h25.4l1,3.4
									H-243.7z"/>
							</g>
							<path class="st0" d="M-236,414.2"/>
						</g>
						<g>
							<path id="path-1_1_" class="st1" d="M-242.6,397.8c0-6.5,5.7-11.7,12.7-11.7c7,0,12.7,5.3,12.7,11.7v12.5h-25.3V397.8
								L-242.6,397.8z M-243.7,410.3h27.4c0.5,0,1,0.4,1.1,0.8l1.9,6c0.1,0.5-0.1,0.8-0.6,0.8h-32.3c-0.5,0-0.8-0.4-0.6-0.8l1.9-6
								C-244.7,410.7-244.2,410.3-243.7,410.3z M-242.7,412.5h25.4l1,3.4h-27.4L-242.7,412.5L-242.7,412.5z M-239.5,399.3
								c0,3.3,2.4,6,5.6,6.6c-1.3-1.9-2-4.2-2-6.6s0.7-4.7,2-6.6C-237.1,393.2-239.5,396-239.5,399.3L-239.5,399.3z M-254,395.9h8.7
								v2.6h-8.7V395.9L-254,395.9z M-214.7,395.9h8.7v2.6h-8.7V395.9L-214.7,395.9z M-220.5,385.6l6.2-6l1.9,1.8l-6.2,6
								L-220.5,385.6L-220.5,385.6z M-239.5,385.6l-6.2-6l-1.9,1.8l6.2,6L-239.5,385.6L-239.5,385.6z M-231.3,383.5V375h2.6v8.5
								H-231.3L-231.3,383.5z"/>
						</g>
					</g>
				</g>
			</g>
		</g>
	</g>
</g>
</svg>
