<?xml version="1.0" encoding="utf-8"?>
<!-- Generator: Adobe Illustrator 19.0.1, SVG Export Plug-In . SVG Version: 6.00 Build 0)  -->
<svg version="1.1" id="Capa_1" xmlns:sketch="http://www.bohemiancoding.com/sketch/ns"
	 xmlns="http://www.w3.org/2000/svg" xmlns:xlink="http://www.w3.org/1999/xlink" x="0px" y="0px" viewBox="-279 358 27 39.7"
	 style="enable-background:new -279 358 27 39.7;" xml:space="preserve">
<style type="text/css">
	.st0{display:none;}
	.st1{display:inline;}
	.st2{display:inline;filter:url(#Adobe_OpacityMaskFilter);}
	.st3{fill:#FFFFFF;}
	.st4{display:inline;mask:url(#mask-2);fill:#0C67F5;}
	.st5{filter:url(#Adobe_OpacityMaskFilter_1_);}
	.st6{mask:url(#mask-4);fill:#0C67F5;}
</style>
<title>Imported Layers Copy 8</title>
<desc>Created with Sketch.</desc>
<g id="Page-1" sketch:type="MSPage">
	<g id="Buscar" transform="translate(-452.000000, -473.000000)" sketch:type="MSArtboardGroup">
		<g id="Imported-Layers-Copy-8" transform="translate(452.000000, 473.000000)" sketch:type="MSLayerGroup">
			<g id="Group-3" class="st0">
				<g id="Clip-2" class="st1">
				</g>
				<defs>
					<filter id="Adobe_OpacityMaskFilter" filterUnits="userSpaceOnUse" x="-279.7" y="358" width="54.3" height="79.9">
						<feColorMatrix  type="matrix" values="1 0 0 0 0  0 1 0 0 0  0 0 1 0 0  0 0 0 1 0"/>
					</filter>
				</defs>
				<mask maskUnits="userSpaceOnUse" x="-279.7" y="358" width="54.3" height="79.9" id="mask-2" class="st1">
					<g style="filter:url(#Adobe_OpacityMaskFilter);">
						<path id="path-1" class="st3" d="M-252.5,394.1c5,0,9.2-4.1,9.2-9.1c0-5-4.1-9.1-9.2-9.1c-5,0-9.2,4.1-9.2,9.1
							C-261.7,390-257.6,394.1-252.5,394.1L-252.5,394.1z M-252.5,359c-14.4,0-26.2,11.6-26.2,26c0,4.7,1.3,9.2,3.5,13l22.6,39
							l22.6-39c2.2-3.8,3.5-8.3,3.5-13C-226.3,370.6-238.1,359-252.5,359L-252.5,359z"/>
					</g>
				</mask>
				<path id="Fill-1" sketch:type="MSShapeGroup" class="st4" d="M-279.7,358h54.3v79.9h-54.3V358z"/>
			</g>
			<g id="Group-6">
				<g id="Clip-5" class="st0">
				</g>
				<defs>
					<filter id="Adobe_OpacityMaskFilter_1_" filterUnits="userSpaceOnUse" x="-279.7" y="358" width="54.4" height="79.9">
						<feColorMatrix  type="matrix" values="1 0 0 0 0  0 1 0 0 0  0 0 1 0 0  0 0 0 1 0"/>
					</filter>
				</defs>
				<mask maskUnits="userSpaceOnUse" x="-279.7" y="358" width="54.4" height="79.9" id="mask-4">
					<g class="st5">
						<path id="path-3" class="st3" d="M-265.9,358.4c-7.1,0.2-12.8,5.9-12.8,13c0,2.4,0.6,4.6,1.8,6.5l11.3,19.5l11.3-19.5
							c1.1-1.9,1.8-4.1,1.8-6.5c0-7.1-5.7-12.8-12.8-13H-265.9L-265.9,358.4z M-265.6,375.9c2.5,0,4.6-2,4.6-4.5
							c0-2.5-2.1-4.5-4.6-4.5c-2.5,0-4.6,2-4.6,4.5C-270.2,373.9-268.1,375.9-265.6,375.9L-265.6,375.9z"/>
					</g>
					<circle cx="-265.6" cy="371.4" r="4.7"/>
				</mask>
				<path id="Fill-4" sketch:type="MSShapeGroup" class="st6" d="M-279.7,358h54.4v79.9h-54.4V358z"/>
			</g>
		</g>
	</g>
</g>
</svg>
