<?xml version="1.0" encoding="utf-8"?>
<!-- Generator: Adobe Illustrator 19.0.1, SVG Export Plug-In . SVG Version: 6.00 Build 0)  -->
<svg version="1.1" id="Capa_1" xmlns:sketch="http://www.bohemiancoding.com/sketch/ns"
	 xmlns="http://www.w3.org/2000/svg" xmlns:xlink="http://www.w3.org/1999/xlink" x="0px" y="0px" viewBox="-266 362 78 70"
	 enable-background="new -266 362 78 70" xml:space="preserve">
<title>Rectangle 2</title>
<desc>Created with Sketch.</desc>
<g id="Page-1" sketch:type="MSPage">
	<g id="Emergencia_blank" transform="translate(-278.000000, -182.000000)" sketch:type="MSArtboardGroup">
		<g id="EMERGENCIA--_x2B_-Rectangle-2" transform="translate(165.000000, 182.000000)" sketch:type="MSLayerGroup">
			<g id="Rectangle-2">
				<g sketch:type="MSShapeGroup">
					<g>
						<polygon fill="#FF9000" points="-129.5,379.3 -139.5,369.5 -142.5,372.4 -132.5,382.2 						"/>
						<rect x="-116.1" y="362" fill="#FF9000" width="4.3" height="13.8"/>
						<polygon fill="#FF9000" points="-85.5,372.4 -88.5,369.5 -98.5,379.3 -95.5,382.2 						"/>
						<rect x="-153" y="395.9" fill="#FF9000" width="14.2" height="4.2"/>
						<rect x="-89.2" y="395.9" fill="#FF9000" width="14.2" height="4.2"/>
						<path fill="#FF9000" d="M-89.9,420.8c-0.2-0.7-1.1-1.3-1.8-1.3h-1.7V399c0-10.5-9.2-19.1-20.6-19.1
							c-11.4,0-20.6,8.5-20.6,19.1v20.4h-1.8c-0.8,0-1.6,0.6-1.8,1.3l-3.1,9.8c-0.2,0.7,0.2,1.3,1,1.3h52.5c0.8,0,1.2-0.6,1-1.3
							L-89.9,420.8z M-120.3,390.7c-2.1,3.1-3.3,6.8-3.3,10.7s1.2,7.6,3.3,10.7c-5.2-0.9-9.1-5.4-9.1-10.7
							C-129.5,396.1-125.5,391.7-120.3,390.7z M-136.3,428.4l1.6-5.5h41.2l1.6,5.5H-136.3z"/>
					</g>
				</g>
				<g>
					<path id="path-1_1_" fill="none" d="M-134.5,399c0-10.5,9.2-19.1,20.6-19.1c11.4,0,20.6,8.5,20.6,19.1v20.4h-41.1V399
						L-134.5,399z M-136.3,419.4h44.6c0.8,0,1.6,0.6,1.8,1.3l3.1,9.8c0.2,0.7-0.2,1.3-1,1.3h-52.5c-0.8,0-1.2-0.6-1-1.3l3.1-9.8
						C-137.9,420-137.1,419.4-136.3,419.4z M-134.6,422.9h41.2l1.6,5.5h-44.5L-134.6,422.9L-134.6,422.9z M-129.5,401.4
						c0,5.3,3.9,9.8,9.1,10.7c-2.1-3.1-3.3-6.8-3.3-10.7s1.2-7.6,3.3-10.7C-125.5,391.7-129.5,396.1-129.5,401.4L-129.5,401.4z
						 M-153,395.9h14.2v4.2H-153V395.9L-153,395.9z M-89.2,395.9H-75v4.2h-14.2V395.9L-89.2,395.9z M-98.5,379.3l10-9.8l3,2.9
						l-10,9.8L-98.5,379.3L-98.5,379.3z M-129.5,379.3l-10-9.8l-3,2.9l10,9.8L-129.5,379.3L-129.5,379.3z M-116.1,375.8V362h4.3
						v13.8H-116.1L-116.1,375.8z"/>
				</g>
			</g>
		</g>
	</g>
</g>
</svg>
